<svg xmlns="http://www.w3.org/2000/svg" xmlns:xlink="http://www.w3.org/1999/xlink" viewBox="0 0 45 45"><defs><linearGradient id="e9bcbeff-4b64-491c-bf97-14a05c4acc25" x1="32.0553" y1="39.8945" x2="11.9711" y2="5.1076" gradientUnits="userSpaceOnUse"><stop offset="0" stop-color="#d80e0e"/><stop offset="1" stop-color="#0a6ccb"/></linearGradient><clipPath id="ed43383d-81a7-47c4-b6cc-0760f8dad894"><path d="M5.2889,35.4745H39.711a21.0549,21.0549,0,1,0-34.4221,0Z" style="fill:none"/></clipPath></defs><g style="isolation:isolate"><g id="ff4574fe-5661-433a-8e97-a266ad953e56" data-name="Layer 1"><g id="be912321-bc72-478c-bde9-bb5b5d8cd750" data-name="avatar-male"><g id="aacc5c4c-2ea5-4772-9643-e4359eb80cb4" data-name="avatar_bg"><path d="M5.2889,35.4745H39.711a21.0549,21.0549,0,1,0-34.4221,0Z" style="fill:url(#e9bcbeff-4b64-491c-bf97-14a05c4acc25)"/><path d="M5.2889,35.4745H39.711a21.0549,21.0549,0,1,0-34.4221,0Z" style="fill:#fff;mix-blend-mode:overlay;opacity:0.56"/><g style="clip-path:url(#ed43383d-81a7-47c4-b6cc-0760f8dad894)"><path d="M36.8934,7.8547c-1.9989,1.4776-4.486,3.9686-3.4316,7.09,1.6328,4.8334-5.7579,7.8815,2.4921,11.3848a17.4134,17.4134,0,0,1,6.3289,4.1122A21.0749,21.0749,0,0,0,36.8934,7.8547Z" style="fill:#d6d6d6;mix-blend-mode:soft-light;opacity:0.5"/><path d="M8.1066,7.8547c1.9989,1.4776,4.486,3.9686,3.4316,7.09-1.6328,4.8334,5.7579,7.8815-2.4921,11.3848a17.4125,17.4125,0,0,0-6.3289,4.1122A21.0743,21.0743,0,0,1,8.1066,7.8547Z" style="fill:#d6d6d6;mix-blend-mode:soft-light;opacity:0.5"/></g></g><path d="M20.6773,30.1328A5.0378,5.0378,0,0,1,22.5,31.4956a5.0369,5.0369,0,0,1,1.8227-1.3628l5.1382-2.6134q-.6463-.2-1.3176-.3554A5.7943,5.7943,0,0,1,27.01,23.48a9.6292,9.6292,0,0,1-1.39,1.3284,5.0925,5.0925,0,0,1-6.2359,0,9.64,9.64,0,0,1-1.39-1.3284,5.7938,5.7938,0,0,1-1.1335,3.6837q-.6738.1554-1.32.3563Z" style="fill:#ffaa7b"/><path d="M22.2888,25.87a5.0826,5.0826,0,0,1-2.9045-1.0615,9.6357,9.6357,0,0,1-1.39-1.3285,6.6911,6.6911,0,0,1-.8254,3.3056c.8794,1.7749,2.0189,3.26,3.1713,2.4832A4.5371,4.5371,0,0,0,22.2888,25.87Z" style="fill:#fc9460"/><path d="M20.858,29.86l-2.28-1.16a3.0869,3.0869,0,0,0-2.3414,3.0759c-.6551.1134-3.9537.839-3.9537,3.9208v6.16A20.9537,20.9537,0,0,0,22.5,44.5c.0736,0,.1466-.0021.22-.0028V31.7224C22.72,30.6768,20.858,29.86,20.858,29.86Z" style="fill:#e2e2e2"/><path d="M12.412,41.9284V35.6975c0-3.3295,3.9523-3.81,3.9523-3.81A2.99,2.99,0,0,1,18.74,28.7831l-2.7476-1.3975C10.1094,29.304,7.3,30.0712,5.8345,31.1169,7.36,32.1579,9.7584,34.32,9.7584,37.6286v2.5786A21.0848,21.0848,0,0,0,12.412,41.9284Z" style="fill:#e2e2e2"/><path d="M29.0076,27.3856,24.142,29.86s-1.862.8164-1.862,1.862V44.4973c.0734.0007.1464.0027.22.0027a21.23,21.23,0,0,0,2.91-.2007l-.0006,0,5.9969-1.7718v0a21.0482,21.0482,0,0,0,3.8348-2.32V37.6286c0-3.3083,2.3988-5.4706,3.9239-6.5116-1.4649-1.0458-4.2747-1.813-10.1578-3.7314Z" style="fill:#f2f2f2"/><path d="M27.5031,25.1748a.1669.1669,0,0,0-.2444.1132,6.5789,6.5789,0,0,1-3.1542,4.3353.4228.4228,0,0,0-.1128.646l2.394,2.7421a1.0822,1.0822,0,0,0,1.771-.1985,31.888,31.888,0,0,0,2.0771-4.6958.9587.9587,0,0,0-.2037-.9541A9.95,9.95,0,0,0,27.5031,25.1748Z" style="fill:#fff"/><path d="M20.8969,29.6234a6.4085,6.4085,0,0,1-1.4259-1.0979,3.3068,3.3068,0,0,0-3.2273,3.1182c.2136.4346.4181.8292.6009,1.1694a1.0822,1.0822,0,0,0,1.771.1984L21.01,30.27a.4229.4229,0,0,0-.1127-.6461Z" style="fill:#fff"/><path d="M17.7427,25.2881a.1669.1669,0,0,0-.2444-.1132,9.95,9.95,0,0,0-2.527,1.9882.9587.9587,0,0,0-.2037.9541,30.3188,30.3188,0,0,0,1.5968,3.77,3.2107,3.2107,0,0,1,3.2273-3.24l0,0a6.68,6.68,0,0,1-1.8491-3.3584Z" style="fill:#f2f2f2"/><path d="M35.07,40.3374a21.1588,21.1588,0,0,0,5.7821-6.5668,10.889,10.889,0,0,0-.5281-1.313,3.5006,3.5006,0,0,0-1.243-1.4c-1.5191,1.0171-4.011,3.1993-4.011,6.5708Z" style="fill:#fff"/><path d="M5.9192,31.0577a3.5012,3.5012,0,0,0-1.243,1.4,10.922,10.922,0,0,0-.5281,1.313A21.1567,21.1567,0,0,0,9.93,40.3374V37.6285C9.93,34.257,7.4383,32.0748,5.9192,31.0577Z" style="fill:#fff"/><path d="M30.3755,36.6475H26.3794a1.0343,1.0343,0,0,0-1.0313,1.0312v6.2734a1.019,1.019,0,0,0,.0617.3468,20.9022,20.9022,0,0,0,5.9969-1.7718V37.6787a1.0342,1.0342,0,0,0-1.0312-1.0312Z" style="fill:#fff"/><path d="M14.6687,14.0331h15.75a15.0087,15.0087,0,0,1,1.4032-6.2782,1.181,1.181,0,0,0,.08-.9714c-.43-1.2-1.7158-4.0049-4.5193-4.753a.1875.1875,0,0,1-.0673-.3286l.42-.33a.2823.2823,0,0,0-.1206-.4995C25.5459.4733,18.6765-.4812,16.5426,3.9065a.9953.9953,0,0,1-.6492.5233,3.8342,3.8342,0,0,0-2.4656,2.0965,1.1876,1.1876,0,0,0-.0646.9137A24.7736,24.7736,0,0,1,14.6687,14.0331Z" style="fill:#424242"/><path d="M21.716,7.0976C19.2,3.264,23.6006.5015,23.6006.5015c-2.6685.0346-5.7512.718-7.058,3.405a.9953.9953,0,0,1-.6492.5233,3.8342,3.8342,0,0,0-2.4656,2.0965,1.1876,1.1876,0,0,0-.0646.9137,24.7736,24.7736,0,0,1,1.3055,6.5931h3.6661c2.32-1.88,4.876-4.6575,3.3812-6.9355Z" style="fill:#212121"/><path d="M31.03,13.5741a1.431,1.431,0,0,0-1.4446.0385,4.2678,4.2678,0,0,1,.0128,1.2567l-.3584,2.61q0,.3154-.0188.62A1.1819,1.1819,0,0,0,30.688,17.04a3.9971,3.9971,0,0,1,.1543-.6831c.2325-.7258,1.071-1.9728.1876-2.7824Z" style="fill:#ffaa7b"/><path d="M13.97,13.5741a1.431,1.431,0,0,1,1.4446.0385,4.2678,4.2678,0,0,0-.0128,1.2567l.3583,2.61c0,.21.0067.4167.0189.62A1.1819,1.1819,0,0,1,14.3121,17.04a3.9971,3.9971,0,0,0-.1543-.6831c-.2325-.7258-1.0711-1.9728-.1876-2.7824Z" style="fill:#fc9460"/><path d="M29.4555,12.8062a3.4828,3.4828,0,0,0-.3105-.6246,1.8753,1.8753,0,0,1-.2833-1.1446c.0836-1.1549.0388-3.4136-1.4773-4.0957a5.5989,5.5989,0,0,0-3.8754.091,3.1993,3.1993,0,0,1-1.9449.0226c-1.148.881-1.175,2.8647-1.0974,3.921a1.8821,1.8821,0,0,1-.2879,1.15,3.5158,3.5158,0,0,0-.3068.6128,4.2284,4.2284,0,0,0-.2393,2.11l.3632,2.6452a9.7185,9.7185,0,0,0,3.7567,7.7287,5.1093,5.1093,0,0,0,.8123.5135,5.0576,5.0576,0,0,0,1.053-.6287,9.5914,9.5914,0,0,0,3.7077-7.6277l.3583-2.61a4.1746,4.1746,0,0,0-.2284-2.0631Z" style="fill:#ffaa7b"/><path d="M23.7649,25.1071a9.5914,9.5914,0,0,1-3.7077-7.6277l-.3584-2.6107a4.1742,4.1742,0,0,1,.2361-2.0822,3.4608,3.4608,0,0,1,.3029-.6049,1.8582,1.8582,0,0,0,.2842-1.1348c-.0791-1.0756-.0483-3.1255,1.194-3.9493-.0755-.0191-.1506-.0406-.2249-.0653a5.599,5.599,0,0,0-3.8754-.091c-1.5205.684-1.5612,2.9537-1.4765,4.1056a1.8575,1.8575,0,0,1-.2842,1.1348,3.4678,3.4678,0,0,0-.3029.6049,4.1742,4.1742,0,0,0-.2361,2.0822l.3584,2.6107a9.5919,9.5919,0,0,0,3.7077,7.6277,5.0929,5.0929,0,0,0,5.3093.57,5.0578,5.0578,0,0,1-.9265-.57Z" style="fill:#fc9460"/><path d="M18.8333,12.8446A1.8334,1.8334,0,0,0,17,14.6779a.3055.3055,0,0,0,.6109,0,1.2236,1.2236,0,0,1,1.2224-1.2221.3056.3056,0,1,0,0-.6112Z" style="fill:#fff"/><path d="M26.1666,12.8446a1.8333,1.8333,0,0,0-1.8333,1.8333.3055.3055,0,0,0,.6109,0,1.2236,1.2236,0,0,1,1.2224-1.2221.3056.3056,0,1,0,0-.6112Z" style="fill:#fff"/><path d="M29.5275,14.3724h-.32a3.0558,3.0558,0,0,0-6.081,0H21.8737a3.0558,3.0558,0,0,0-6.0809,0h-.32a.3054.3054,0,1,0,0,.6107h.32a3.0558,3.0558,0,0,0,6.0809,0h1.2524a3.0558,3.0558,0,0,0,6.0809,0h.32a.3054.3054,0,1,0,0-.6107Zm-8.9656,2.0341a2.4454,2.4454,0,1,1,.7157-1.7286A2.43,2.43,0,0,1,20.5619,16.4065Zm7.3333,0a2.4454,2.4454,0,1,1,.7157-1.7286A2.43,2.43,0,0,1,27.8952,16.4065Z" style="fill:#fff"/></g></g></g></svg>