<svg xmlns="http://www.w3.org/2000/svg" xmlns:xlink="http://www.w3.org/1999/xlink" viewBox="0 0 45 45"><defs><linearGradient id="ba480ca5-7bd2-4951-8398-f65210dd0093" x1="32.0553" y1="39.9948" x2="11.9711" y2="5.2079" gradientUnits="userSpaceOnUse"><stop offset="0" stop-color="#d80e0e"/><stop offset="1" stop-color="#0a6ccb"/></linearGradient></defs><g style="isolation:isolate"><g id="edfe15f8-c814-421d-9204-ef9ae587457a" data-name="Layer 1"><g id="a7c5fd3f-67cb-48ff-9913-24a8a398ed60" data-name="avatar-female"><path d="M5.2889,35.5748H39.711a21.0549,21.0549,0,1,0-34.4221,0Z" style="fill:url(#ba480ca5-7bd2-4951-8398-f65210dd0093)"/><path d="M5.2889,35.5748H39.711a21.0549,21.0549,0,1,0-34.4221,0Z" style="fill:#fff;mix-blend-mode:overlay;opacity:0.56"/><path d="M39.3116,34.605a6.543,6.543,0,0,0-4.6547-3.5511,29.5454,29.5454,0,0,1-5.0442-1.451.9649.9649,0,0,1-.4642.5645,13.7007,13.7007,0,0,1-6.5913,1.5845,15.6,15.6,0,0,1-1.6323-.0855c.0134.03.0261.06.04.0905a16.8194,16.8194,0,0,0-4.2467,1.1362c-2.9237,1.254-4.4691,3.2187-4.4691,5.6817V41.84A21.0639,21.0639,0,0,0,39.711,35.5748a7.8794,7.8794,0,0,0-.3994-.97Z" style="fill:#f2f2f2"/><path d="M15.4878,29.5617a29.3511,29.3511,0,0,1-5.1448,1.4922A6.5428,6.5428,0,0,0,5.6883,34.605a7.8951,7.8951,0,0,0-.3994.97,21.1608,21.1608,0,0,0,7.0894,6.3368V38.5748c0-5.8878,8.782-6.7107,8.782-6.7107-.031-.0615-.06-.122-.0872-.1819a13.3217,13.3217,0,0,1-5.1085-1.5157.9672.9672,0,0,1-.4768-.6048Z" style="fill:#fff"/><path d="M29.7409,28.8694l-1.65-2.65a1.0091,1.0091,0,0,0-1.1046-.4429,18.2354,18.2354,0,0,1-4.4289.5688c-.17,0-.338-.0033-.5052-.0085v1.41a2.7727,2.7727,0,0,0-1.3412,1.46,3.2672,3.2672,0,0,0,.2543,2.5508c-.0886.0112-.2074.0274-.3513.05a15.9882,15.9882,0,0,0,1.9433.1173,14.155,14.155,0,0,0,6.8093-1.6367,1.0062,1.0062,0,0,0,.3745-1.4175Z" style="fill:#e2e2e2"/><path d="M18.1273,25.7752a1.0089,1.0089,0,0,0-1.1049.4429l-1.65,2.65a1.0062,1.0062,0,0,0,.3742,1.4175A13.8016,13.8016,0,0,0,21.16,31.8626c-1.5-2.9866,1.0213-4.034,1.0213-4.034V26.34A18.3869,18.3869,0,0,1,18.1273,25.7752Z" style="fill:#f2f2f2"/><path d="M30.12,24.7875a21.1111,21.1111,0,0,1-.8725-4.8426,17.6635,17.6635,0,0,1-1.7175,4.197,8.0011,8.0011,0,0,1-1.49,1.85,15.7543,15.7543,0,0,0,2.04,11.0052.5328.5328,0,0,0,.9832-.2532C29.0052,32.53,31.6813,30.2573,30.12,24.7875Z" style="fill:#212121"/><path d="M22.5562,3.8842a8.94,8.94,0,0,1,3.4631.661,3.5423,3.5423,0,0,0,.0416-.5406,3.5047,3.5047,0,0,0-7.0093,0,3.5433,3.5433,0,0,0,.0416.5406A8.9394,8.9394,0,0,1,22.5562,3.8842Z" style="fill:#424242"/><path d="M22.5562,3.1417a1.7661,1.7661,0,0,1,0-2.6417,3.5046,3.5046,0,0,0-3.5046,3.5046,3.5433,3.5433,0,0,0,.0416.5406,8.9394,8.9394,0,0,1,3.463-.6609Z" style="fill:#212121"/><path d="M18.4808,5.0544a8.7608,8.7608,0,0,1,4.0754-.945,8.76,8.76,0,0,1,4.0755.9451c.192.0991.3774.2069.5572.3213a5.92,5.92,0,0,0-9.2653,0C18.1033,5.2613,18.2888,5.1535,18.4808,5.0544Z" style="fill:#d3dcfb"/><path d="M15.7075,14.8374a2.1517,2.1517,0,0,1,.4136-.803,1.0376,1.0376,0,0,0,.273-.6552c.0425-1.4227.5893-6.032,5.8407-4.019a.9005.9005,0,0,0,.6429,0c5.2514-2.013,5.7982,2.5963,5.8407,4.019a1.0376,1.0376,0,0,0,.273.6552,2.1517,2.1517,0,0,1,.4136.803v0a1.9471,1.9471,0,0,1,1.0525-.2909l0-.0011V11.0922a7.05,7.05,0,0,0-3.8259-6.263,8.7612,8.7612,0,0,0-4.0755-.9451,8.7607,8.7607,0,0,0-4.0754.9451,7.05,7.05,0,0,0-3.8259,6.263v3.4531l0,.0011a1.948,1.948,0,0,1,1.0525.291Z" style="fill:#424242"/><path d="M22.5562,3.8842a8.7607,8.7607,0,0,0-4.0754.9451,7.05,7.05,0,0,0-3.8259,6.263v3.4531l0,.0011a1.9477,1.9477,0,0,1,1.0525.2909,2.1517,2.1517,0,0,1,.4136-.803,1.0376,1.0376,0,0,0,.273-.6552c.0417-1.3954.5691-5.8555,5.5441-4.1268-.0208-.0272-.0408-.0545-.0633-.0813C19.5407,6.3927,22.5562,3.8842,22.5562,3.8842Z" style="fill:#212121"/><path d="M15.6424,18.94a12.3551,12.3551,0,0,1,.0651-4.3276,1.5556,1.5556,0,0,0-1.7024-.0638c-.7968.7789-.2129,1.9552.0665,2.6982a2.8231,2.8231,0,0,1,.1661.69,1.2809,1.2809,0,0,0,1.4559,1.22c-.0171-.0723-.0345-.1436-.0512-.2171Z" style="fill:#fc9460"/><path d="M31.1074,14.5484a1.5556,1.5556,0,0,0-1.7024.0638A12.3551,12.3551,0,0,1,29.47,18.94c-.0167.0735-.0341.1448-.0512.2171a1.2809,1.2809,0,0,0,1.456-1.22,2.8231,2.8231,0,0,1,.1661-.69c.2793-.743.8632-1.9193.0664-2.6982Z" style="fill:#ffaa7b"/><path d="M29.0335,13.7718a.9746.9746,0,0,1-.2588-.62c-.0252-.8446-.2385-2.9117-1.6711-3.8657-1.0162-.6767-2.4447-.67-4.246.0211a.8406.8406,0,0,1-.6027,0q-.3276-.1256-.6385-.2206c-1.4582.9778-1.6757,3.086-1.7014,3.9482a.9964.9964,0,0,1-.2648.6335c-.9174,1.0338-.7165,4.0542-.5025,5.2976a19.1412,19.1412,0,0,0,2.04,5.4225,8.2341,8.2341,0,0,0,3.0205,2.9885,8.0778,8.0778,0,0,0,3.3208-3.123,18.7225,18.7225,0,0,0,1.9962-5.3059c.2011-1.2782.4152-4.1541-.4922-5.1767Z" style="fill:#ffaa7b"/><path d="M21.2592,24.2545a18.7141,18.7141,0,0,1-1.9953-5.3023c-.2093-1.216-.4057-4.1694.4913-5.18a.9735.9735,0,0,0,.2589-.62c.0252-.8446.2385-2.9119,1.6711-3.8658q.0924-.0617.19-.1154a4.3275,4.3275,0,0,0-3.8659.1154c-1.4327.954-1.6459,3.0212-1.6711,3.8658a.974.974,0,0,1-.2589.62c-.8971,1.0109-.7007,3.9644-.4913,5.18a18.7171,18.7171,0,0,0,1.9953,5.3023,8.12,8.12,0,0,0,3.8253,3.3623,2.9016,2.9016,0,0,0,2.2959,0c.237-.1025.4667-.2159.69-.3374A8.0661,8.0661,0,0,1,21.2592,24.2545Z" style="fill:#fc9460"/><path d="M35.4016,6.8064c-1.3772,1.1232-2.7634,2.926-1.9464,5.3172C34.9134,16.3915,31.1,22.22,35.3846,26.5045a7.61,7.61,0,0,0,7.5885,1.875A21.0856,21.0856,0,0,0,35.4016,6.8064Z" style="fill:#d6d6d6;mix-blend-mode:soft-light;opacity:0.5"/><path d="M9.5983,6.8064c1.3772,1.1232,2.7634,2.926,1.9464,5.3172C10.0865,16.3915,13.9,22.22,9.6153,26.5045A7.61,7.61,0,0,1,2.0268,28.38,21.0864,21.0864,0,0,1,9.5983,6.8064Z" style="fill:#d6d6d6;mix-blend-mode:soft-light;opacity:0.5"/><path d="M36.7757,38.92a5.2407,5.2407,0,0,0-2.3266-3.2182.8051.8051,0,0,0-1.2377.6783v5.1949A21.1264,21.1264,0,0,0,36.7757,38.92Z" style="fill:#fff"/><path d="M27.7325,27.8535c0,2.3.3794,4.5429,2.0153,4.8209.6422-2.2171,1.3663-4.4037.3717-7.8869-.024-.084-.0465-.166-.0693-.2485A3.8511,3.8511,0,0,0,27.7325,27.8535Z" style="fill:#424242"/><path d="M18.8333,14.3112A1.8335,1.8335,0,0,0,17,16.1446a.3055.3055,0,0,0,.6109,0,1.2237,1.2237,0,0,1,1.2224-1.2222.3056.3056,0,1,0,0-.6112Z" style="fill:#fff"/><path d="M26.1666,14.3112a1.8335,1.8335,0,0,0-1.8333,1.8334.3055.3055,0,0,0,.6109,0,1.2237,1.2237,0,0,1,1.2224-1.2222.3056.3056,0,1,0,0-.6112Z" style="fill:#fff"/><path d="M29.5275,15.8391h-.32a3.0558,3.0558,0,0,0-6.081,0H21.8737a3.0558,3.0558,0,0,0-6.0809,0h-.32a.3054.3054,0,1,0,0,.6107h.32a3.0558,3.0558,0,0,0,6.0809,0h1.2524a3.0558,3.0558,0,0,0,6.0809,0h.32a.3054.3054,0,1,0,0-.6107Zm-8.9656,2.0341a2.4454,2.4454,0,1,1,.7157-1.7286A2.43,2.43,0,0,1,20.5619,17.8732Zm7.3333,0a2.4454,2.4454,0,1,1,.7157-1.7286A2.43,2.43,0,0,1,27.8952,17.8732Z" style="fill:#fff"/></g></g></g></svg>